####
#
# OBJ File Generated by Meshlab
#
####
# Object light.obj
#
# Vertices: 8
# Faces: 6
#
####
vn 0.904534 0.301511 -0.301511
v 0.362565 0.120855 -0.120855
vn 0.904534 -0.301511 -0.301511
v 0.362565 -0.120855 -0.120855
vn 0.904534 0.301511 0.301511
v 0.362565 0.120855 0.120855
vn 0.904534 -0.301511 0.301511
v 0.362565 -0.120855 0.120855
vn -0.904534 0.301511 -0.301511
v -0.362565 0.120855 -0.120855
vn -0.904534 -0.301511 -0.301511
v -0.362565 -0.120855 -0.120855
vn -0.904534 0.301511 0.301511
v -0.362565 0.120855 0.120855
vn -0.904534 -0.301511 0.301511
v -0.362565 -0.120855 0.120855
# 8 vertices, 0 vertices normals

f 7//7 3//3 1//1 5//5
f 7//7 8//8 4//4 3//3
f 5//5 6//6 8//8 7//7
f 4//4 8//8 6//6 2//2
f 3//3 4//4 2//2 1//1
f 1//1 2//2 6//6 5//5
# 6 faces, 0 coords texture

# End of File
